<svg width="100" height="100" viewBox="0 0 100 100" fill="none" xmlns="http://www.w3.org/2000/svg">
<rect width="100" height="100" rx="16" fill="white"/>
<path d="M50 27.5C50 31.625 46.6438 35 42.5 35H23.75H12.5C8.35775 35 5 38.375 5 42.5V72.5V83.75C5 87.875 8.35786 91.25 12.5 91.25H87.5C91.6438 91.25 95 87.875 95 83.75V72.5V35C95 30.875 91.6438 27.5 87.5 27.5H50Z" fill="#2980B9"/>
<path d="M12.5 12.5C8.35775 12.5 5 15.8577 5 20V38.75H42.5V42.5H95V23.75C95 19.6077 91.6438 16.25 87.5 16.25H48.9462C47.6487 14.0116 45.275 12.5 42.5 12.5H12.5Z" fill="#2980B9"/>
<path d="M50 23.75C50 27.875 46.6438 31.25 42.5 31.25H23.75H12.5C8.35775 31.25 5 34.625 5 38.75V68.75V80C5 84.125 8.35786 87.5 12.5 87.5H87.5C91.6438 87.5 95 84.125 95 80V68.75V31.25C95 27.125 91.6438 23.75 87.5 23.75H50Z" fill="#3498DB"/>
</svg>
