<svg width="100" height="100" viewBox="0 0 100 100" fill="none" xmlns="http://www.w3.org/2000/svg">
<rect width="100" height="100" rx="16" fill="black"/>
<circle cx="49.5" cy="50.5" r="39.5" fill="white"/>
<path d="M73.4375 3.125H26.5625C13.6184 3.125 3.125 13.6184 3.125 26.5625V73.4375C3.125 86.3816 13.6184 96.875 26.5625 96.875H73.4375C86.3816 96.875 96.875 86.3816 96.875 73.4375V26.5625C96.875 13.6184 86.3816 3.125 73.4375 3.125ZM60.8514 81.3602C59.1885 81.6838 58.599 80.66 58.599 79.7807C58.599 78.7035 58.6396 75.1588 58.6396 70.7619C58.6396 67.6953 57.5914 65.6906 56.4156 64.6746C63.7152 63.8605 71.3758 61.0809 71.3758 48.4525C71.3758 44.8619 70.1098 41.9273 68.0086 39.6264C68.3445 38.7961 69.467 35.4555 67.6807 30.9279C67.6807 30.9279 64.9322 30.0439 58.6762 34.2971C56.0582 33.5639 53.2525 33.2043 50.4711 33.1877C47.6814 33.2 44.8793 33.5639 42.2652 34.2926C36.0066 30.04 33.2535 30.9232 33.2535 30.9232C31.4715 35.4469 32.5938 38.7914 32.9334 39.6225C30.8367 41.9232 29.558 44.8582 29.558 48.4482C29.558 61.0436 37.2107 63.8643 44.4865 64.6959C43.5477 65.5188 42.7 66.9674 42.4051 69.0916C40.5373 69.9346 35.7889 71.3842 32.8639 66.3615C32.8639 66.3615 31.1354 63.2055 27.8461 62.9723C27.8461 62.9723 24.6465 62.9311 27.6244 64.9697C27.6244 64.9697 29.7756 65.9803 31.2629 69.7795C31.2629 69.7795 33.1879 76.1736 42.3023 74.1877C42.3195 76.9311 42.3477 78.9982 42.3477 79.7805C42.3477 80.6527 41.7494 81.6676 40.1109 81.3637C27.0842 77.0127 17.6947 64.6912 17.6947 50.1674C17.6947 32.008 32.3682 17.2879 50.4625 17.2879C68.5656 17.2879 83.2391 32.008 83.2391 50.1674C83.2395 64.6877 73.858 77.0043 60.8514 81.3602Z" fill="black"/>
</svg>
