<svg width="100" height="100" viewBox="0 0 100 100" fill="none" xmlns="http://www.w3.org/2000/svg">
<rect width="100" height="100" rx="16" fill="white"/>
<path fill-rule="evenodd" clip-rule="evenodd" d="M27.2406 50C27.2406 47.4019 27.6719 44.9106 28.4425 42.5744L14.9613 32.28C12.3338 37.6144 10.8538 43.6256 10.8538 50C10.8538 56.3694 12.3325 62.3762 14.9556 67.7075L28.4294 57.3931C27.6663 55.0675 27.2406 52.5856 27.2406 50Z" fill="#FBBC05"/>
<path fill-rule="evenodd" clip-rule="evenodd" d="M50.9106 26.3637C56.555 26.3637 61.6531 28.3637 65.6587 31.6363L77.3112 20C70.2106 13.8181 61.1069 10 50.9106 10C35.0806 10 21.4756 19.0525 14.9612 32.28L28.4419 42.5744C31.5481 33.1456 40.4025 26.3637 50.9106 26.3637Z" fill="#EA4335"/>
<path fill-rule="evenodd" clip-rule="evenodd" d="M50.9106 73.6363C40.4031 73.6363 31.5487 66.8544 28.4425 57.4256L14.9612 67.7181C21.4756 80.9475 35.0806 90 50.9106 90C60.6806 90 70.0087 86.5306 77.0094 80.0306L64.2131 70.1381C60.6025 72.4125 56.0556 73.6363 50.9106 73.6363Z" fill="#34A853"/>
<path fill-rule="evenodd" clip-rule="evenodd" d="M89.1463 50C89.1463 47.6363 88.7819 45.0906 88.2356 42.7275H50.9106V58.1819H72.3956C71.3213 63.4513 68.3975 67.5019 64.2131 70.1381L77.0094 80.0306C84.3631 73.2056 89.1463 63.0381 89.1463 50Z" fill="#4285F4"/>
</svg>
