<svg width="100" height="100" viewBox="0 0 100 100" fill="none" xmlns="http://www.w3.org/2000/svg">
<rect width="100" height="100" rx="16" fill="#007FB5"/>
<path d="M82.5 0H17.5C7.83502 0 0 7.83502 0 17.5V82.5C0 92.165 7.83502 100 17.5 100H82.5C92.165 100 100 92.165 100 82.5V17.5C100 7.83502 92.165 0 82.5 0Z" fill="#007FB5"/>
<path d="M28.1563 36.7812H14.0469V87.9062H28.1563V36.7812Z" fill="white"/>
<path d="M75.3125 36.7813C64.9063 32.8125 57.375 39.5313 54.1563 43.2813V36.7813H40.0938V87.9063H54.1563V60.9375C54.0762 57.5193 55.3253 54.2034 57.6406 51.6875C58.3015 50.9095 59.1158 50.2763 60.0326 49.8273C60.9494 49.3783 61.9489 49.1233 62.9688 49.0781C64.1093 49.0562 65.2426 49.265 66.3005 49.6919C67.3584 50.1189 68.3191 50.7551 69.125 51.5625C70.8726 53.3889 71.8274 55.832 71.7813 58.3594V87.9063H87.6563V56.25C87.6563 56.25 89.4219 42.0625 75.3125 36.7813Z" fill="white"/>
<path d="M21.0938 29.7188C25.9608 29.7188 29.9062 25.7733 29.9062 20.9062C29.9062 16.0392 25.9608 12.0938 21.0938 12.0938C16.2267 12.0938 12.2812 16.0392 12.2812 20.9062C12.2812 25.7733 16.2267 29.7188 21.0938 29.7188Z" fill="white"/>
</svg>
