<?xml version="1.0" ?><svg id="Layer_1" style="enable-background:new 0 0 100 100;" version="1.1" viewBox="0 0 100 100" xml:space="preserve" xmlns="http://www.w3.org/2000/svg" xmlns:xlink="http://www.w3.org/1999/xlink"><style type="text/css">
	.st0{fill:#FFFFFF;}
	.st1{fill:#FF7E7B;}
	.st2{fill:#FF6F3F;}
	.st3{fill:#FFAC00;}
	.st4{fill:#FFC300;}
	.st5{fill:#FF3400;}
	.st6{fill:#F0EA0D;}
	.st7{fill:#DAE411;}
	.st8{fill:#EAA200;}
	.st9{fill:#E63300;}
	.st10{fill:#83D567;}
	.st11{fill:#A2DD50;}
	.st12{fill:#8BC100;}
	.st13{fill:#8D8800;}
	.st14{fill:#44C899;}
	.st15{fill:#4EBFBD;}
	.st16{fill:#00A33F;}
	.st17{fill:#008D08;}
	.st18{fill:#859ED5;}
	.st19{fill:#6EACDF;}
	.st20{fill:#1D7B97;}
	.st21{fill:#00683A;}
	.st22{fill:#BE85C1;}
	.st23{fill:#AB86C4;}
	.st24{fill:#5D53A6;}
	.st25{fill:#243F76;}
	.st26{fill:#F1648A;}
	.st27{fill:#E275A8;}
	.st28{fill:#E40017;}
	.st29{fill:#E60000;}
	.st30{fill:#9F3174;}
	.st31{fill:#9F0017;}
	.st32{fill:#561E5D;}
</style><g id="Symbols_12_"><g id="Graphics-_x2F_-App-Icons-_x2F_-Photos_2_"><g id="Photos-Icon_2_"><g id="Mask_1_"><path class="st0" d="M63.6,5c9,0,13.6,0,18.4,1.5c5.3,1.9,9.5,6.1,11.4,11.4C95,22.8,95,27.3,95,36.4v27.2      c0,9,0,13.6-1.5,18.4c-1.9,5.3-6.1,9.5-11.4,11.4C77.2,95,72.7,95,63.6,95H36.4c-9,0-13.6,0-18.4-1.5C12.7,91.5,8.5,87.3,6.5,82      C5,77.2,5,72.7,5,63.6V36.4c0-9,0-13.6,1.5-18.4C8.5,12.7,12.7,8.5,18,6.5C22.8,5,27.3,5,36.4,5H63.6z" id="path-1_29_"/></g></g><path class="st1" d="M35.8,38c0.9,0,1.7,0.1,2.5,0.3c-0.2-0.8-0.3-1.7-0.3-2.5V23c0-0.6,0.1-1.1,0.1-1.6    c-4.7-3.5-11.4-3.1-15.6,1.1s-4.6,10.9-1.1,15.6c0.5-0.1,1.1-0.1,1.6-0.1H35.8z"/><path class="st2" d="M49.2,47.7c-0.6,0-1.1-0.1-1.7-0.2c0.1,0.5,0.2,1.1,0.2,1.7c0.3-0.2,0.5-0.4,0.8-0.7    C48.7,48.2,48.9,48,49.2,47.7z"/><path class="st3" d="M48.5,31.5c0.6,0.6,1.2,1.3,1.6,2c0.5-0.7,1-1.4,1.6-2l9-9c0.4-0.4,0.7-0.7,1.1-1C61.2,15.6,56.1,11,50,11    c-6.1,0-11.1,4.5-11.9,10.4c0.5,0.3,0.9,0.7,1.3,1.1L48.5,31.5z"/><path class="st4" d="M51,47.7c-0.3-0.4-0.7-0.8-0.9-1.3c-0.3,0.4-0.6,0.9-0.9,1.3c0.3,0,0.6,0,0.8,0C50.3,47.8,50.7,47.7,51,47.7z    "/><path class="st5" d="M38,35.8c0,0.9,0.1,1.7,0.3,2.5c4.6,1,8.2,4.6,9.2,9.2c0.5,0.1,1.1,0.2,1.7,0.2c0.3-0.4,0.7-0.8,0.9-1.3    c-2.5-3.9-2.5-9,0-12.9c-0.5-0.7-1-1.4-1.6-2l-9-9c-0.4-0.4-0.9-0.8-1.3-1.1C38.1,21.9,38,22.4,38,23V35.8z"/><path class="st6" d="M62,35.8c0,0.9-0.1,1.7-0.3,2.5c0.8-0.2,1.7-0.3,2.5-0.3H77c0.6,0,1.2,0.1,1.8,0.2c3.5-4.7,3.2-11.4-1.1-15.7    c-4.3-4.3-11.1-4.6-15.8-1C62,22,62,22.5,62,23V35.8z"/><path class="st7" d="M52.3,49c0-0.5,0.1-1,0.2-1.5c-0.5,0.1-1,0.2-1.5,0.2c0.2,0.3,0.5,0.5,0.7,0.8C51.9,48.7,52.1,48.8,52.3,49z"/><path class="st8" d="M51.7,31.5c-0.6,0.6-1.2,1.3-1.6,2c2.5,3.9,2.5,9,0,12.9c0.3,0.4,0.6,0.9,0.9,1.3c0.5,0,1-0.1,1.5-0.2    c1-4.6,4.6-8.2,9.2-9.2c0.2-0.8,0.3-1.7,0.3-2.5V23c0-0.5,0-1-0.1-1.5c-0.4,0.3-0.8,0.6-1.1,1L51.7,31.5z"/><path class="st9" d="M50.1,33.5c-2.5,3.9-2.5,9,0,12.9C52.6,42.5,52.6,37.5,50.1,33.5z"/><path class="st10" d="M52.2,50c0,0.4,0,0.8,0.1,1.2c0.5-0.4,1-0.8,1.5-1.1c-0.5-0.3-1-0.7-1.5-1.1C52.3,49.3,52.2,49.7,52.2,50z"/><path class="st11" d="M89,50c0-6-4.4-11-10.2-11.8c-0.3,0.5-0.7,0.9-1.1,1.3l-9,9c-0.6,0.6-1.3,1.2-2,1.6c0.7,0.5,1.4,1,2,1.6l9,9    c0.4,0.4,0.7,0.7,1,1.1C84.5,61,89,56.1,89,50z"/><path class="st12" d="M64.2,38c-0.9,0-1.7,0.1-2.5,0.3c-1,4.6-4.6,8.2-9.2,9.2c-0.1,0.5-0.2,1-0.2,1.5c0.5,0.4,1,0.8,1.5,1.1    c3.9-2.5,9-2.5,12.9,0c0.7-0.5,1.4-1,2-1.6l9-9c0.4-0.4,0.8-0.9,1.1-1.3C78.2,38.1,77.6,38,77,38H64.2z"/><path class="st13" d="M61.7,38.3c-4.6,1-8.2,4.6-9.2,9.2C57.1,46.5,60.7,42.9,61.7,38.3z"/><path class="st14" d="M64.2,62c-0.9,0-1.7-0.1-2.5-0.3c0.2,0.8,0.3,1.7,0.3,2.5V77c0,0.6-0.1,1.1-0.1,1.7c4.7,3.7,11.5,3.4,15.9-1    c4.3-4.3,4.7-11.1,1-15.9C78.1,61.9,77.6,62,77,62H64.2z"/><path class="st15" d="M51.2,52.3c0.4,0,0.9,0.1,1.3,0.2c-0.1-0.4-0.2-0.9-0.2-1.3c-0.2,0.2-0.4,0.3-0.6,0.5S51.4,52.1,51.2,52.3z"/><path class="st16" d="M68.7,51.7c-0.6-0.6-1.3-1.2-2-1.6c-3.9,2.5-9,2.5-12.9,0c-0.5,0.3-1,0.7-1.5,1.1c0,0.4,0.1,0.9,0.2,1.3    c4.6,1,8.2,4.6,9.2,9.2c0.8,0.2,1.7,0.3,2.5,0.3H77c0.6,0,1.1-0.1,1.7-0.1c-0.3-0.4-0.6-0.8-1-1.1L68.7,51.7z"/><path class="st17" d="M53.8,50.1c3.9,2.5,9,2.5,12.9,0C62.7,47.6,57.7,47.6,53.8,50.1z"/><path class="st18" d="M49,52.3c0.4,0.5,0.8,1,1.1,1.5c0.3-0.5,0.7-1,1.1-1.5c-0.4,0-0.8-0.1-1.2-0.1C49.7,52.2,49.3,52.3,49,52.3z    "/><path class="st19" d="M51.7,68.7c-0.6-0.6-1.2-1.3-1.6-2c-0.5,0.7-1,1.4-1.6,2l-9,9c-0.4,0.4-0.9,0.8-1.3,1.1C39,84.6,44,89,50,89    c6.1,0,11-4.5,11.9-10.3c-0.4-0.3-0.8-0.6-1.1-1L51.7,68.7z"/><path class="st20" d="M62,64.2c0-0.9-0.1-1.7-0.3-2.5c-4.6-1-8.2-4.6-9.2-9.2c-0.4-0.1-0.9-0.2-1.3-0.2c-0.4,0.5-0.8,1-1.1,1.5    c2.5,3.9,2.5,9,0,12.9c0.5,0.7,1,1.4,1.6,2l9,9c0.4,0.4,0.7,0.7,1.1,1c0.1-0.6,0.1-1.1,0.1-1.7V64.2z"/><path class="st21" d="M61.7,61.7c-1-4.6-4.6-8.2-9.2-9.2C53.5,57.1,57.1,60.7,61.7,61.7z"/><path class="st22" d="M47.7,51c0,0.5-0.1,1-0.2,1.5c0.5-0.1,1-0.2,1.5-0.2c-0.2-0.2-0.3-0.4-0.5-0.6C48.2,51.5,48,51.3,47.7,51z"/><path class="st23" d="M38,64.2c0-0.9,0.1-1.7,0.3-2.5c-0.8,0.2-1.7,0.3-2.5,0.3H23c-0.5,0-1,0-1.5-0.1c-3.7,4.7-3.3,11.5,1,15.8    c4.3,4.3,11,4.6,15.7,1.1C38.1,78.2,38,77.6,38,77V64.2z"/><path class="st24" d="M48.5,68.7c0.6-0.6,1.2-1.3,1.6-2c-2.5-3.9-2.5-9,0-12.9c-0.3-0.5-0.7-1-1.1-1.5c-0.5,0-1,0.1-1.5,0.2    c-1,4.6-4.6,8.2-9.2,9.2c-0.2,0.8-0.3,1.7-0.3,2.5V77c0,0.6,0.1,1.2,0.2,1.8c0.5-0.3,0.9-0.7,1.3-1.1L48.5,68.7z"/><path class="st25" d="M50.1,66.7c2.5-3.9,2.5-9,0-12.9C47.6,57.7,47.6,62.7,50.1,66.7z"/><path class="st26" d="M47.7,49.2c-0.4,0.3-0.8,0.7-1.3,0.9c0.4,0.3,0.9,0.6,1.3,0.9c0-0.3,0.1-0.7,0.1-1    C47.8,49.7,47.7,49.4,47.7,49.2z"/><path class="st27" d="M31.5,51.7c0.6-0.6,1.3-1.2,2-1.6c-0.7-0.5-1.4-1-2-1.6l-9-9c-0.4-0.4-0.8-0.9-1.1-1.3    C15.5,38.9,11,43.9,11,50c0,6.1,4.6,11.2,10.5,11.9c0.3-0.4,0.6-0.8,1-1.1L31.5,51.7z"/><path class="st28" d="M31.5,48.5c0.6,0.6,1.3,1.2,2,1.6c3.9-2.5,9-2.5,12.9,0c0.4-0.3,0.9-0.6,1.3-0.9c0-0.6-0.1-1.1-0.2-1.7    c-4.6-1-8.2-4.6-9.2-9.2c-0.8-0.2-1.7-0.3-2.5-0.3H23c-0.6,0-1.1,0.1-1.6,0.1c0.3,0.5,0.7,0.9,1.1,1.3L31.5,48.5z"/><path class="st29" d="M38.3,38.3c1,4.6,4.6,8.2,9.2,9.2C46.5,42.9,42.9,39.3,38.3,38.3z"/><path class="st30" d="M35.8,62c0.9,0,1.7-0.1,2.5-0.3c1-4.6,4.6-8.2,9.2-9.2c0.1-0.5,0.2-1,0.2-1.5c-0.4-0.3-0.8-0.7-1.3-0.9    c-3.9,2.5-9,2.5-12.9,0c-0.7,0.5-1.4,1-2,1.6l-9,9c-0.4,0.4-0.7,0.7-1,1.1C22,62,22.5,62,23,62H35.8z"/><path class="st31" d="M33.5,50.1c3.9,2.5,9,2.5,12.9,0C42.5,47.6,37.5,47.6,33.5,50.1z"/><path class="st32" d="M38.3,61.7c4.6-1,8.2-4.6,9.2-9.2C42.9,53.5,39.3,57.1,38.3,61.7z"/></g></g></svg>