<svg width="100" height="100" viewBox="0 0 100 100" fill="none" xmlns="http://www.w3.org/2000/svg">
<g clip-path="url(#clip0)">
<rect width="100" height="100" rx="16" fill="white"/>
<path d="M50 5.07831C25.2021 5.07831 5.07812 25.2023 5.07812 50C5.07812 74.7974 25.2021 94.9217 50 94.9217C74.7973 94.9217 94.9217 74.7974 94.9217 50C94.9217 25.2023 74.7975 5.07831 50 5.07831Z" fill="#1AB26B"/>
<path d="M68.2404 71.175C67.4795 71.175 67.0088 70.9394 66.3022 70.5226C54.9994 63.7123 41.849 63.4221 28.8613 66.0846C28.1549 66.2658 27.2311 66.5558 26.7059 66.5558C24.9488 66.5558 23.8439 65.1607 23.8439 63.6935C23.8439 61.8281 24.949 60.9406 26.3076 60.6508C41.1424 57.3723 56.3035 57.6617 69.2367 65.3965C70.3416 66.1031 70.9938 66.7371 70.9938 68.3851C70.9936 70.0336 69.7074 71.175 68.2404 71.175Z" fill="white"/>
<path d="M73.1131 59.2922C72.1709 59.2922 71.5375 58.8756 70.885 58.5314C59.5639 51.8295 42.682 49.1305 27.666 53.2062C26.7965 53.4414 26.3256 53.6765 25.5105 53.6765C23.5725 53.6765 21.9965 52.101 21.9965 50.1631C21.9965 48.2246 22.9383 46.9389 24.8041 46.4135C29.8398 45.0006 34.984 43.9502 42.5195 43.9502C54.2748 43.9502 65.6322 46.8664 74.5803 52.1914C76.0475 53.0609 76.6271 54.1838 76.6271 55.7599C76.6088 57.7166 75.0871 59.2922 73.1131 59.2922Z" fill="white"/>
<path d="M78.7279 45.4896C77.7861 45.4896 77.2066 45.2543 76.3916 44.7834C63.4947 37.0852 40.4359 35.2375 25.5104 39.4037C24.8584 39.5848 24.0432 39.8744 23.1734 39.8744C20.7826 39.8744 18.9531 38.0086 18.9531 35.5996C18.9531 33.1363 20.475 31.7414 22.1051 31.2705C28.4811 29.4047 35.6176 28.5172 43.3885 28.5172C56.6117 28.5172 70.4682 31.2705 80.5939 37.1756C82.0068 37.9906 82.9305 39.1135 82.9305 41.2693C82.9305 43.7328 80.9381 45.4896 78.7279 45.4896Z" fill="white"/>
</g>
<defs>
<clipPath id="clip0">
<rect width="100" height="100" rx="16" fill="white"/>
</clipPath>
</defs>
</svg>
