<svg width="100" height="100" viewBox="0 0 100 100" fill="none" xmlns="http://www.w3.org/2000/svg">
<rect width="100" height="100" rx="16" fill="#34495E"/>
<path d="M12.5 87.5C7.89751 87.5 4.16667 83.75 4.16667 79.1667V50V41.6667V29.1667H95.8333V41.6667V50V79.1667C95.8333 83.75 92.1042 87.5 87.5 87.5H50H12.5Z" fill="#34495E"/>
<path d="M16.6667 18.75V23.3332L25 33.3333L16.6667 42.9164V47.5001L29.1667 33.3333L16.6667 18.75V18.75Z" fill="#ECF0F1"/>
<path d="M12.5 8.33333C7.89751 8.33333 4.16667 12.0642 4.16667 16.6667V45.8333V54.1667V66.6667H95.8333V54.1667V45.8333V16.6667C95.8333 12.0642 92.1042 8.33333 87.5 8.33333H50H12.5Z" fill="#34495E"/>
<path d="M16.6667 21.3542V26.0417L29.1667 33.3333L16.6667 40.625V45.3125L37.5 33.3333L16.6667 21.3542ZM37.5 41.6667V45.8333H58.3333V41.6667H37.5Z" fill="#ECF0F1"/>
</svg>
